<?xml version="1.0" encoding="utf-8"?>
<!-- Generator: Adobe Illustrator 27.4.0, SVG Export Plug-In . SVG Version: 6.00 Build 0)  -->
<svg version="1.1" id="Layer_1" xmlns="http://www.w3.org/2000/svg" xmlns:xlink="http://www.w3.org/1999/xlink" x="0px" y="0px"
	 width="73.6px" height="73.6px" viewBox="0 0 73.6 73.6" style="enable-background:new 0 0 73.6 73.6;" xml:space="preserve">
<style type="text/css">
	.st0{fill:#B51E47;}
</style>
<path class="st0" d="M20.9,41.9H6.5c-1.3,0-2.4-1.1-2.4-2.4v-5.8c0-1.3,1.1-2.4,2.4-2.4h14.4c1.3,0,2.4,1.1,2.4,2.4v5.8
	C23.4,40.8,22.3,41.9,20.9,41.9z"/>
<path class="st0" d="M67.1,42.1H52.7c-1.3,0-2.4-1.1-2.4-2.4v-5.8c0-1.3,1.1-2.4,2.4-2.4h14.4c1.3,0,2.4,1.1,2.4,2.4v5.8
	C69.6,41,68.5,42.1,67.1,42.1z"/>
<path class="st0" d="M67.1,66.9H52.7c-1.3,0-2.4-1.1-2.4-2.4v-5.8c0-1.3,1.1-2.4,2.4-2.4h14.4c1.3,0,2.4,1.1,2.4,2.4v5.8
	C69.6,65.8,68.5,66.9,67.1,66.9z"/>
<path class="st0" d="M44.5,3.8H29.1c-2.1,0-3.8,1.7-3.8,3.8v58.6c0,2.1,1.7,3.8,3.8,3.8h15.4c2.1,0,3.8-1.7,3.8-3.8V7.5
	C48.3,5.5,46.6,3.8,44.5,3.8z M46.5,52c0,1.3-1.1,2.4-2.4,2.4H29.6c-1.3,0-2.4-1.1-2.4-2.4v-5.8c0-1.3,1.1-2.4,2.4-2.4H44
	c1.3,0,2.4,1.1,2.4,2.4V52z M46.5,39.5c0,1.3-1.1,2.4-2.4,2.4H29.6c-1.3,0-2.4-1.1-2.4-2.4v-5.8c0-1.3,1.1-2.4,2.4-2.4H44
	c1.3,0,2.4,1.1,2.4,2.4V39.5z M46.5,14.5c0,1.3-1.1,2.4-2.4,2.4H29.6c-1.3,0-2.4-1.1-2.4-2.4V8.7c0-1.3,1.1-2.4,2.4-2.4H44
	c1.3,0,2.4,1.1,2.4,2.4V14.5z"/>
<path class="st0" d="M20.9,29.5H6.5c-1.3,0-2.4-1.1-2.4-2.4v-5.8c0-1.3,1.1-2.4,2.4-2.4h14.4c1.3,0,2.4,1.1,2.4,2.4V27
	C23.4,28.4,22.3,29.5,20.9,29.5z"/>
</svg>
